<svg xmlns="http://www.w3.org/2000/svg" viewBox="0 0 46.22 52.96"><defs><style>.cls-1,.cls-2{fill:#26baa4;}.cls-2{stroke:#26baa4;stroke-miterlimit:10;stroke-width:0.5px;}</style></defs><g id="Layer_2" data-name="Layer 2"><g id="Layer_1-2" data-name="Layer 1"><path class="cls-1" d="M10.11,34.06l1.06-2.82-1.26.33c2,2.07,4.15,4.34,7,5a6.37,6.37,0,0,0,6.44-1.84c.35-.45.65-1.25,1.12-1.57.94-.63,1.62.67,2.07,1.29a3.41,3.41,0,0,0,2.78,1.67c2.9,0,4.11-2.87,4.81-5.21a.75.75,0,0,0-1.44-.4A7,7,0,0,1,31,34a2.37,2.37,0,0,1-2.05.57c-.68-.21-1-.88-1.42-1.43-1.12-1.56-3-2.39-4.37-.68-.73.9-1.12,1.86-2.25,2.37a5.56,5.56,0,0,1-3.37.33c-2.7-.55-4.71-2.75-6.53-4.66a.76.76,0,0,0-1.25.33L8.66,33.66c-.33.91,1.12,1.3,1.45.4Z"/><path class="cls-1" d="M14.74,25.39c-.16-.23.36-.25.51-.19a2.76,2.76,0,0,1,.93.9A3.92,3.92,0,0,0,18,27.68c1.29.38,2.34-.45,3.21-1.3s1.72-1.88,2.62-.7c.48.62.71,1.38,1.18,2a2.7,2.7,0,0,0,2.07,1.19c1,0,1-1.46,0-1.5s-1.3-1.36-1.67-2a3.13,3.13,0,0,0-1.93-1.69C22,23.36,21,24.6,20,25.52c-.35.33-.84.82-1.37.76-.86-.09-1.4-1.39-2-1.92a2.16,2.16,0,0,0-2.53-.48,1.63,1.63,0,0,0-.66,2.27c.55.78,1.85,0,1.3-.76Z"/><path class="cls-1" d="M36.67,13.57l.8-2a5.85,5.85,0,0,1,3.26-3.27l2.05-.82a.51.51,0,0,0,0-.94l-2-.83a5.87,5.87,0,0,1-3.22-3.23L36.66.32a.51.51,0,0,0-.94,0l-.9,2.16a5.82,5.82,0,0,1-3.14,3.16l-2.09.88a.51.51,0,0,0,0,.94l2,.78a5.82,5.82,0,0,1,3.32,3.33l.78,2A.51.51,0,0,0,36.67,13.57Z"/><path class="cls-1" d="M43.4,16.83l.3-.77a2.74,2.74,0,0,1,1.54-1.54L46,14.2a.31.31,0,0,0,0-.58l-.78-.32a2.77,2.77,0,0,1-1.52-1.52L43.39,11a.32.32,0,0,0-.59,0l-.35.84A2.7,2.7,0,0,1,41,13.27l-.8.34a.32.32,0,0,0,0,.59l.76.3a2.76,2.76,0,0,1,1.57,1.57l.3.75A.32.32,0,0,0,43.4,16.83Z"/><path class="cls-2" d="M19,47.65c-4.76,2.5-9.91,4.17-15.4,3.91l.41,1a21.56,21.56,0,0,0,6.35-8.82A.56.56,0,0,0,9.91,43,13.12,13.12,0,0,1,1.59,28.44C2.8,22.06,8.35,17,14.73,15.2c7.15-2,15.13-.24,20.23,5.05a16.46,16.46,0,0,1,3.52,18.07,16,16,0,0,1-7.95,8.09A18.63,18.63,0,0,1,19.42,47.6c-.74-.12-1.06,1-.32,1.08a20.39,20.39,0,0,0,10.76-.77,17.11,17.11,0,0,0,7.57-26.53A21.3,21.3,0,0,0,17,13.55C9.8,14.69,3.17,19.54.94,26.31c-2.29,7,1.29,15.26,8.66,17.78l-.41-.69a20.31,20.31,0,0,1-6,8.32.57.57,0,0,0,.42,1c5.69.27,11.06-1.47,16-4.06C20.22,48.27,19.63,47.31,19,47.65Z"/></g></g></svg>