<svg width="401" height="271" viewBox="0 0 401 271" fill="none" xmlns="http://www.w3.org/2000/svg">
<path fill-rule="evenodd" clip-rule="evenodd" d="M137.874 113.686C141.188 104.58 151.258 99.8842 160.365 103.199L252.705 136.808C261.812 140.123 266.507 150.192 263.193 159.299C259.878 168.406 249.808 173.101 240.702 169.787L148.361 136.177C139.254 132.863 134.559 122.793 137.874 113.686Z" fill="#FAFAFA"/>
<path fill-rule="evenodd" clip-rule="evenodd" d="M160.365 103.199C151.258 99.8842 141.188 104.58 137.874 113.686C134.559 122.793 139.254 132.863 148.361 136.177L240.702 169.787C249.808 173.101 259.878 168.406 263.193 159.299C266.507 150.192 261.812 140.123 252.705 136.808L160.365 103.199Z" fill="#FAFAFA"/>
<path d="M122.844 97.3906C120.906 100.134 119.298 103.177 118.094 106.484C113.621 118.772 115.778 131.857 122.736 141.821C109.252 153.297 96.8797 166.042 85.8048 179.87L84.5231 181.471L83.1398 179.957C76.1708 172.332 67.2504 166.524 57.1724 163.322L54.7637 162.557L56.3224 160.568C75.2626 136.394 97.6886 115.083 122.844 97.3906Z" fill="#FAFAFA"/>
<path d="M182.377 170.963C177.857 207.331 146.836 235.478 109.243 235.478C105.607 235.478 102.034 235.215 98.541 234.707L97.0063 234.484L96.5962 235.98C93.6378 246.768 87.7246 256.339 79.7777 263.765L77.4805 265.911L80.5134 266.739C89.6675 269.239 99.301 270.574 109.243 270.574C162.005 270.574 205.993 233.016 215.934 183.177L182.377 170.963Z" fill="#FAFAFA"/>
<path d="M280.107 172.676C304.498 155.251 326.276 134.404 344.742 110.837L346.3 108.848L343.892 108.082C333.814 104.881 324.893 99.0725 317.924 91.4471L316.541 89.9336L315.259 91.534C303.994 105.6 291.386 118.545 277.631 130.175C285.152 140.252 287.61 153.802 282.988 166.501C282.196 168.677 281.228 170.739 280.107 172.676Z" fill="#FAFAFA"/>
<path d="M184.82 89.6893L218.481 101.941L218.619 100.785C222.974 64.2391 254.078 35.9018 291.797 35.9018C295.433 35.9018 299.006 36.165 302.499 36.673L304.034 36.8962L304.444 35.4006C307.402 24.6118 313.316 15.0415 321.263 7.61557L323.56 5.46897L320.527 4.64068C311.373 2.14073 301.739 0.806641 291.797 0.806641C238.512 0.806641 194.176 39.1122 184.82 89.6893Z" fill="#FAFAFA"/>
<ellipse cx="39.0808" cy="220.184" rx="38.6047" ry="38.6047" transform="rotate(180 39.0808 220.184)" fill="#FAFAFA"/>
<ellipse cx="361.984" cy="51.2219" rx="38.6047" ry="38.6047" fill="#FAFAFA"/>
</svg>
