<svg width="290" height="144" viewBox="0 0 290 144" fill="none" xmlns="http://www.w3.org/2000/svg">
<path d="M21.9742 0L42.9742 36H84.9742L105.974 0H21.9742Z" fill="#006EF0"/>
<path d="M21.9742 0L0.974182 36L21.9739 72L42.9742 108L63.9742 72L42.9739 36L21.9742 0Z" fill="#2F8EFF"/>
<path d="M0.974182 108L21.9742 72L42.9742 108L21.9739 144L0.974182 108Z" fill="#006EF0"/>
<path d="M143.46 74.6557H133.357V99.8365H120.974V74.6557L113.974 74.6552V64.8652L120.974 64.9044V58.3791C120.974 52.7038 122.625 48.7826 125.927 46.6157C129.229 44.4487 134.285 43.3652 141.096 43.3652C145.636 43.3652 148.583 43.7264 151.937 44.4487L150.085 52.9618C149.398 52.8472 148.848 52.7468 148.376 52.6605C146.933 52.397 146.211 52.2652 144.501 52.2652C140.941 52.2652 138.181 52.7038 136.22 53.5809C134.311 54.458 133.357 56.0574 133.357 58.3791V64.9044H143.46V74.6557Z" fill="white"/>
<path d="M174.703 67.4339C176.457 67.4339 177.747 67.4855 178.573 67.5887L180.502 58.5339C178.438 58.2244 175.374 58.0696 173.31 58.0696C167.48 58.0696 163.017 58.6113 159.922 59.6948C157.29 60.3655 155.975 61.9133 155.975 64.3383V99.8365H167.661V68.5174C169.982 67.7951 172.33 67.4339 174.703 67.4339Z" fill="white"/>
<path fill-rule="evenodd" clip-rule="evenodd" d="M182.505 79.9713V78.6557C182.505 71.742 184.259 66.5826 187.767 63.1774C191.327 59.7722 196.461 58.0696 203.168 58.0696C209.876 58.0696 214.983 59.7722 218.492 63.1774C222.052 66.5826 223.832 71.742 223.832 78.6557V79.9713C223.832 86.8849 222.052 92.0702 218.492 95.527C214.983 98.9322 209.876 100.635 203.168 100.635C196.461 100.635 191.327 98.9322 187.767 95.527C184.259 92.0702 182.505 86.8849 182.505 79.9713ZM211.527 79.8939V78.7331C211.527 70.9939 208.74 67.1244 203.168 67.1244C197.596 67.1244 194.81 70.9681 194.81 78.6557V79.8939C194.81 87.6847 197.596 91.58 203.168 91.58C208.74 91.58 211.527 87.6847 211.527 79.8939Z" fill="white"/>
<path d="M271.623 88.6783C271.674 88.5751 271.932 87.956 272.397 86.8209C272.861 85.6858 273.3 84.4991 273.712 83.2609C274.125 82.0226 274.615 80.4232 275.183 78.4626C275.802 76.4505 276.369 74.0771 276.885 71.3426C277.453 68.6081 278.356 62.4957 278.356 59.52L289.732 58.3652C289.216 64.1954 287.823 74.4383 285.553 81.0939C283.335 87.7496 281.271 92.5736 279.362 95.5661C277.762 98.1974 275.776 99.5131 273.403 99.5131H269.92C268.527 99.5131 267.444 99.2293 266.67 98.6618C265.896 98.0942 265.199 97.0881 264.58 95.6435C262.843 91.589 260.324 85.6858 258.776 77.0696C257.899 83.622 255.474 89.8652 253.126 95.6435C252.507 97.0365 251.811 98.0426 251.037 98.6618C250.314 99.2293 249.257 99.5131 247.864 99.5131H244.226C241.801 99.5131 239.841 98.2232 238.344 95.6435C236.384 92.4447 234.294 87.44 232.076 80.6296C229.857 73.7676 228.49 63.6794 227.974 58.3652L239.351 59.52C239.351 62.9957 240.331 68.9951 240.898 71.8844C241.466 74.722 242.008 77.0954 242.524 79.0044C243.091 80.9133 243.581 82.5128 243.994 83.8026C244.458 85.0409 244.897 86.1244 245.31 87.0531C245.722 87.9818 245.955 88.5235 246.006 88.6783C246.006 88.6267 246.316 87.8012 246.935 86.2018C247.606 84.6023 248.225 82.9513 248.792 81.2487C249.36 79.5461 250.031 76.9922 250.805 73.587C251.578 70.1302 252.223 66.4412 252.739 62.52C252.842 61.7461 252.971 61.127 253.126 60.6626C253.281 60.1467 253.668 59.6565 254.287 59.1922C254.958 58.7278 255.861 58.4957 256.996 58.4957H260.711C261.846 58.4957 262.723 58.702 263.342 59.1148C263.961 59.5276 264.348 59.9661 264.503 60.4304C264.709 60.8948 264.89 61.5913 265.044 62.52C265.56 66.6476 266.205 70.4655 266.979 73.9739C267.753 77.4823 268.424 80.0878 268.991 81.7905C269.559 83.4415 270.127 84.9893 270.694 86.4339C271.313 87.8786 271.623 88.6267 271.623 88.6783Z" fill="white"/>
</svg>
