<svg xmlns="http://www.w3.org/2000/svg" viewBox="0 0 59.02 71.17"><defs><style>.cls-1{fill:#fff;}</style></defs><g id="Layer_2" data-name="Layer 2"><g id="Layer_1-2" data-name="Layer 1"><path class="cls-1" d="M30.18,45.57a2.5,2.5,0,0,0-4.84,1.27,10.51,10.51,0,0,1,0,5.78C24,57.27,18.67,60.76,11.8,62a6.28,6.28,0,1,0,.38,5c9-1.42,15.94-6.21,18-12.86A15.4,15.4,0,0,0,30.18,45.57Z"/><path class="cls-1" d="M45.29,0a6.27,6.27,0,0,0-5.92,4.21c-9,1.42-15.93,6.22-18,12.87a15.36,15.36,0,0,0,0,8.51,2.5,2.5,0,0,0,2.42,1.87,2.72,2.72,0,0,0,.63-.08,2.5,2.5,0,0,0,1.79-3.05,10.51,10.51,0,0,1,0-5.78c1.42-4.65,6.71-8.14,13.58-9.33A6.27,6.27,0,1,0,45.29,0Z"/><path class="cls-1" d="M25.27,38.06a13.33,13.33,0,0,1-3.58-.5A26.73,26.73,0,0,1,6.06,26.28,2.5,2.5,0,0,1,10.4,23.8,22.11,22.11,0,0,0,23,32.74a7.94,7.94,0,0,0,3.67.18,7.58,7.58,0,0,0,5-3.58c2.05-3.24,4.38-4.79,6.92-4.63,3.74.25,5.84,4.28,6.2,5,2.15,4,5,3,5.32,2.86,1.62-.66,3.31-4.08,4-6.17a2.5,2.5,0,0,1,4.79,1.44c-.23.76-2.37,7.51-6.83,9.35C46.23,39.63,41.88,34.85,40.4,32l0-.1c-.47-1-1.46-2.16-2-2.19-.32,0-1.18.44-2.37,2.32a12.44,12.44,0,0,1-8.27,5.79A11.49,11.49,0,0,1,25.27,38.06Z"/></g></g></svg>