<svg width="302" height="144" viewBox="0 0 302 144" fill="none" xmlns="http://www.w3.org/2000/svg">
<path d="M84.8145 36L105.814 0L63.8145 0L84.8145 36Z" fill="#0070F3"/>
<path d="M42.8145 36L63.8145 0L21.8145 0L42.8145 36Z" fill="#0070F3"/>
<path d="M21.8142 72L42.8142 36L0.814209 36L21.8142 72Z" fill="#2589FF"/>
<path d="M21.8142 144L42.8142 108H0.814209L21.8142 144Z" fill="#0070F3"/>
<path d="M42.8145 108L63.8145 72H21.8145L42.8145 108Z" fill="#2589FF"/>
<path d="M63.8145 -1.83588e-06L42.8144 36L84.8144 36L63.8145 -1.83588e-06Z" fill="#0070F3"/>
<path d="M21.8145 -1.83588e-06L0.814449 36L42.8144 36L21.8145 -1.83588e-06Z" fill="#2589FF"/>
<path d="M42.8145 36L21.8144 72L63.8144 72L42.8145 36Z" fill="#2589FF"/>
<path d="M21.8145 72L0.814449 108L42.8144 108L21.8145 72Z" fill="#0070F3"/>
<path d="M113.821 60.2481L113.505 60.2418V60.5577V69.8481V70.1577H113.814H139.621H139.931V69.8481V61.0739V60.7703L139.627 60.7643L113.821 60.2481Z" fill="white" stroke="white" stroke-width="0.619355"/>
<path d="M118.091 103.642V103.951H118.401H130.169H130.479V103.642V55.1256C130.479 53.3446 131.069 52.0697 132.015 51.1424C132.97 50.2061 134.31 49.6021 135.844 49.2185C138.515 48.5501 141.67 48.572 144.16 48.5893C144.536 48.5919 144.897 48.5944 145.239 48.5944H145.535L145.548 48.2981L145.895 40.2478L145.907 39.9667L145.628 39.9278C139.743 39.1052 135.816 39.4352 131.064 39.9532L131.056 39.9541L131.048 39.9554C124.477 41.0262 121.18 43.7649 119.562 46.881C117.963 49.9622 118.038 53.3569 118.09 55.6775L118.09 55.6987L118.091 55.7484V103.642Z" fill="white" stroke="white" stroke-width="0.619355"/>
<path d="M149.427 103.642V103.951H149.737H161.504H161.814V103.642V75.4711C161.814 73.7408 162.412 72.5023 163.37 71.6193C164.337 70.7273 165.696 70.1764 167.247 69.8818C170.351 69.292 174.112 69.7501 176.668 70.398L176.986 70.4786L177.048 70.1563L178.597 62.1131L178.651 61.8297L178.373 61.7554C172.649 60.2284 167.17 60.1687 162.401 60.6754L162.393 60.6763L162.385 60.6775C155.817 61.7207 152.519 64.3889 150.899 67.429C149.298 70.4351 149.374 73.7471 149.425 76.0087L149.426 76.0301L149.427 76.0783V103.642Z" fill="white" stroke="white" stroke-width="0.619355"/>
<path d="M218.964 82.422C218.964 87.4578 217.483 91.5843 215.013 94.3769C212.624 97.0787 208.908 98.9966 203.372 98.9966C197.834 98.9966 194.088 97.0764 191.672 94.3638C189.181 91.5655 187.686 87.4407 187.686 82.422C187.686 77.4032 189.181 73.2784 191.672 70.4801C194.088 67.7675 197.834 65.8473 203.372 65.8473C208.908 65.8473 212.624 67.7652 215.013 70.467C217.483 73.2596 218.964 77.3861 218.964 82.422Z" stroke="white" stroke-width="10.529"/>
<path d="M225.092 60.5828H237.789L247.079 87.5247L258.847 63.6795C259.363 62.8537 261.015 61.2021 263.492 61.2021C265.97 61.2021 267.622 62.8537 268.138 63.6795L279.906 87.5247L289.196 60.5828H301.893L286.718 99.9118C286.099 101.46 283.374 103.938 279.906 103.938C276.437 103.938 273.918 101.254 273.093 99.9118L263.492 80.7743L253.892 99.9118C253.066 101.254 250.548 103.938 247.079 103.938C243.611 103.938 240.886 101.46 240.266 99.9118L225.092 60.5828Z" fill="white"/>
</svg>
