<svg xmlns="http://www.w3.org/2000/svg" viewBox="0 0 187.1 71.17"><defs><style>.cls-1,.cls-2{fill:#fff;}.cls-1{stroke:#fff;stroke-miterlimit:10;}</style></defs><g id="Layer_2" data-name="Layer 2"><g id="Layer_1-2" data-name="Layer 1"><path class="cls-1" d="M78.47,30.87h7.78a1.46,1.46,0,0,1,1.22.58,2.33,2.33,0,0,1,0,2.78,1.46,1.46,0,0,1-1.22.58H78.47a1.62,1.62,0,0,0-1.17.48,1.58,1.58,0,0,0-.51,1.2V52.55a1.51,1.51,0,0,1-.57,1.23,2.39,2.39,0,0,1-2.79,0,1.51,1.51,0,0,1-.57-1.23V17.94a1.95,1.95,0,0,1,2-2H91.48a1.51,1.51,0,0,1,1.23.57,2.46,2.46,0,0,1,0,2.81,1.49,1.49,0,0,1-1.25.55h-13a1.75,1.75,0,0,0-1.68,1.68v7.6a1.73,1.73,0,0,0,1.68,1.68Z"/><path class="cls-1" d="M102.33,41.37V52.55a1.52,1.52,0,0,1-1,1.49,2.34,2.34,0,0,1-2,0,1.51,1.51,0,0,1-1-1.49V41.37a13.86,13.86,0,0,1,3.7-9.91,12.66,12.66,0,0,1,9.65-3.92,11.56,11.56,0,0,1,5.8,1.25,1.72,1.72,0,0,1,.92,2.11,1.68,1.68,0,0,1-1.78,1.44,11.35,11.35,0,0,1-2-.43,11.52,11.52,0,0,0-2.93-.43,8.9,8.9,0,0,0-6.87,2.76A10.14,10.14,0,0,0,102.33,41.37Z"/><path class="cls-1" d="M145.43,51.57a13.91,13.91,0,0,1-18.72,0q-4-3.63-4-10.2t4-10.18a13.49,13.49,0,0,1,9.38-3.6,14,14,0,0,1,4.9.87A13.79,13.79,0,0,1,145.24,31a11.25,11.25,0,0,1,3,4.35,15.67,15.67,0,0,1,1.13,6.07Q149.42,47.94,145.43,51.57Zm-9.36-.31a9.45,9.45,0,0,0,6.68-2.55q2.73-2.53,2.73-7.34t-2.73-7.32a10.1,10.1,0,0,0-13.35,0q-2.73,2.52-2.73,7.32c0,3.2.91,5.65,2.75,7.34A9.46,9.46,0,0,0,136.07,51.26Z"/><path class="cls-1" d="M165.4,47.94l3-10a1.77,1.77,0,0,1,1.82-1c1,0,1.65.36,1.87,1.1L175,47.94l7.82-18.52a1.48,1.48,0,0,1,1-.92,2.12,2.12,0,0,1,1.46.15,2.06,2.06,0,0,1,1.08.93,1.53,1.53,0,0,1,.07,1.37L177.11,53a1.8,1.8,0,0,1-1.82,1.2,1.86,1.86,0,0,1-1.83-1.29L170.2,42.26l-3.26,10.68a2,2,0,0,1-1.88,1.29,1.8,1.8,0,0,1-1.82-1.2L153.88,31a1.57,1.57,0,0,1,.05-1.37,1.93,1.93,0,0,1,1.1-.93,2,2,0,0,1,1.42-.15,1.47,1.47,0,0,1,1,.92Z"/><path class="cls-2" d="M30.18,45.57a2.5,2.5,0,0,0-4.84,1.27,10.51,10.51,0,0,1,0,5.78C24,57.27,18.67,60.76,11.8,62a6.28,6.28,0,1,0,.38,5c9-1.42,15.94-6.21,18-12.86A15.4,15.4,0,0,0,30.18,45.57Z"/><path class="cls-2" d="M45.29,0a6.27,6.27,0,0,0-5.92,4.21c-9,1.42-15.93,6.22-18,12.87a15.36,15.36,0,0,0,0,8.51,2.5,2.5,0,0,0,2.42,1.87,2.72,2.72,0,0,0,.63-.08,2.5,2.5,0,0,0,1.79-3.05,10.51,10.51,0,0,1,0-5.78c1.42-4.65,6.71-8.14,13.58-9.33A6.27,6.27,0,1,0,45.29,0Z"/><path class="cls-2" d="M25.27,38.06a13.33,13.33,0,0,1-3.58-.5A26.73,26.73,0,0,1,6.06,26.28,2.5,2.5,0,0,1,10.4,23.8,22.11,22.11,0,0,0,23,32.74a7.94,7.94,0,0,0,3.67.18,7.58,7.58,0,0,0,5-3.58c2.05-3.24,4.38-4.79,6.92-4.63,3.74.25,5.84,4.28,6.2,5,2.15,4,5,3,5.32,2.86,1.62-.66,3.31-4.08,4-6.17a2.5,2.5,0,0,1,4.79,1.44c-.23.76-2.37,7.51-6.83,9.35C46.23,39.63,41.88,34.85,40.4,32l0-.1c-.47-1-1.46-2.16-2-2.19-.32,0-1.18.44-2.37,2.32a12.44,12.44,0,0,1-8.27,5.79A11.49,11.49,0,0,1,25.27,38.06Z"/></g></g></svg>