<svg xmlns="http://www.w3.org/2000/svg" viewBox="0 0 39.59 52.88"><defs><style>.cls-1,.cls-2{fill:none;stroke:#26baa4;}.cls-1{stroke-linecap:round;stroke-linejoin:round;stroke-width:1.5px;}.cls-2{stroke-miterlimit:10;stroke-width:1.4px;}.cls-3{fill:#26baa4;}</style></defs><g id="Layer_2" data-name="Layer 2"><g id="Layer_1-2" data-name="Layer 1"><path class="cls-1" d="M26.92,52.13l-.28-16.76L38.76,45.84l-5.69-1.37a1.52,1.52,0,0,0-1.7.73l-4,6.93"/><path class="cls-2" d="M35.67,30.63H3.92a3.59,3.59,0,0,1-2.28-.82,2.64,2.64,0,0,1-.94-2v-8A3,3,0,0,1,3.92,17H35.67a3,3,0,0,1,3.22,2.8v8A3,3,0,0,1,35.67,30.63Z"/><circle class="cls-3" cx="37.52" cy="2" r="2"/><path class="cls-2" d="M20.19,17a10.4,10.4,0,0,1,0-5.72C21.87,5.77,28.77,1.94,37.4,2"/><circle class="cls-3" cx="2.7" cy="45.59" r="2"/><path class="cls-2" d="M20,30.63a10.31,10.31,0,0,1,0,5.72c-1.68,5.47-8.58,9.3-17.21,9.24"/><path class="cls-3" d="M8.22,24.49l1-2.83L8,22c2,2.06,4.15,4.34,7,5a6.38,6.38,0,0,0,6.44-1.85c.35-.44.64-1.25,1.12-1.56.94-.63,1.62.66,2.07,1.29a3.41,3.41,0,0,0,2.78,1.67c2.9,0,4.11-2.87,4.81-5.21a.75.75,0,0,0-1.44-.4,6.93,6.93,0,0,1-1.76,3.48A2.34,2.34,0,0,1,27,25c-.68-.21-1-.88-1.42-1.42-1.12-1.56-3-2.4-4.37-.68-.73.9-1.12,1.85-2.25,2.37a5.56,5.56,0,0,1-3.37.32c-2.7-.54-4.71-2.74-6.53-4.66a.76.76,0,0,0-1.25.34L6.77,24.09c-.33.9,1.12,1.29,1.45.4Z"/></g></g></svg>